Cast:
Viva Bianca, Wayne Blair, Peter Docker

Plot:
Holly Rowe's retiring, kissing her callgirl life goodbye. She just has to get through her last night on the job. Shay Ryan's a teenage runaway, broke and alone. She just has to get through her first night as a hooker. Then fate throws them together on a job that goes horribly wrong and they're trapped on an out-of-control roller coaster ride, through the twilight zone of sex-for-sale. X is a sizzling adults-only thriller about love, chance, escape and the oldest profession experienced by two women, on a night that will change their lives forever.


INFO, POSTER and TRAILER:
        
http://www.sharepixon.net/movies/x

	

SCREENSHOTS:
       
http://img.sharepixon.net/?v=x1tlt.png 
http://img.sharepixon.net/?v=x2nnn.png



	
ID                               : 0
Format                           : MPEG-4 Visual
Format profile                   : Advanced Simple@L5
Format settings, BVOP            : 2
Format settings, QPel            : No
Format settings, GMC             : No warppoints
Format settings, Matrix          : Default (H.263)
Codec ID                         : XVID
Codec ID/Hint                    : XviD
Duration                         : 1h 29mn
Bit rate                         : 2 354 Kbps
Width                            : 720 pixels
Height                           : 400 pixels
Display aspect ratio             : 16:9
Frame rate                       : 23.976 fps
Color space                      : YUV
Chroma subsampling               : 4:2:0
Bit depth                        : 8 bits
Scan type                        : Progressive
Compression mode                 : Lossy
Bits/(Pixel*Frame)               : 0.341
Stream size                      : 1.47 GiB (84%)
Writing library                  : XviD 1.2.1 (UTC 2008-12-04)




ID                               : 1
Format                           : AC-3
Format/Info                      : Audio Coding 3
Mode extension                   : CM (complete main)
Codec ID                         : 2000
Duration                         : 1h 29mn
Bit rate mode                    : Constant
Bit rate                         : 448 Kbps
Channel(s)                       : 6 channels
Channel positions                : Front: L C R, Side: L R, LFE
Sampling rate                    : 48.0 KHz
Bit depth                        : 16 bits
Compression mode                 : Lossy
Delay relative to video          : 2ms
Stream size                      : 286 MiB (16%)
Alignment                        : Split accross interleaves
Interleave, duration             : 42 ms (1.00 video frame)
Interleave, preload duration     : 500 ms         